<svg width="150" height="150" viewBox="0 0 150 150" fill="none" xmlns="http://www.w3.org/2000/svg">
<g clip-path="url(#clip0_1638_70)">
<path d="M75.0245 0C43.7127 0 34.5551 0.0323145 32.7751 0.18C26.3494 0.714274 22.351 1.7263 17.9948 3.89565C14.6378 5.56316 11.9902 7.49599 9.37719 10.2055C4.6185 15.1466 1.73442 21.2256 0.690364 28.4516C0.182792 31.9596 0.0351055 32.675 0.00511496 50.5935C-0.0063937 56.5663 0.00511496 64.427 0.00511496 74.9705C0.00511496 106.265 0.0396975 115.416 0.189707 117.193C0.708844 123.448 1.6894 127.383 3.76595 131.687C7.73446 139.926 15.3137 146.111 24.2429 148.419C27.3346 149.215 30.7493 149.654 35.1331 149.861C36.9905 149.942 55.9215 150 74.8641 150C93.8067 150 112.749 149.977 114.56 149.885C119.636 149.646 122.584 149.25 125.843 148.408C134.83 146.088 142.271 139.995 146.32 131.641C148.356 127.44 149.389 123.355 149.856 117.428C149.957 116.135 150 95.5292 150 74.951C150 54.3692 149.954 33.8013 149.852 32.5089C149.379 26.4853 148.347 22.435 146.245 18.1538C144.52 14.6493 142.605 12.0321 139.825 9.3562C134.863 4.61577 128.795 1.73089 121.564 0.687742C118.061 0.181134 117.363 0.0311244 99.4353 0H75.0245Z" fill="url(#paint0_radial_1638_70)"/>
<path d="M75.0245 0C43.7127 0 34.5551 0.0323145 32.7751 0.18C26.3494 0.714274 22.351 1.7263 17.9948 3.89565C14.6378 5.56316 11.9902 7.49599 9.37719 10.2055C4.6185 15.1466 1.73442 21.2256 0.690364 28.4516C0.182792 31.9596 0.0351055 32.675 0.00511496 50.5935C-0.0063937 56.5663 0.00511496 64.427 0.00511496 74.9705C0.00511496 106.265 0.0396975 115.416 0.189707 117.193C0.708844 123.448 1.6894 127.383 3.76595 131.687C7.73446 139.926 15.3137 146.111 24.2429 148.419C27.3346 149.215 30.7493 149.654 35.1331 149.861C36.9905 149.942 55.9215 150 74.8641 150C93.8067 150 112.749 149.977 114.56 149.885C119.636 149.646 122.584 149.25 125.843 148.408C134.83 146.088 142.271 139.995 146.32 131.641C148.356 127.44 149.389 123.355 149.856 117.428C149.957 116.135 150 95.5292 150 74.951C150 54.3692 149.954 33.8013 149.852 32.5089C149.379 26.4853 148.347 22.435 146.245 18.1538C144.52 14.6493 142.605 12.0321 139.825 9.3562C134.863 4.61577 128.795 1.73089 121.564 0.687742C118.061 0.181134 117.363 0.0311244 99.4353 0H75.0245Z" fill="url(#paint1_radial_1638_70)"/>
<path d="M75.0245 0C43.7127 0 34.5551 0.0323145 32.7751 0.18C26.3494 0.714274 22.351 1.7263 17.9948 3.89565C14.6378 5.56316 11.9902 7.49599 9.37719 10.2055C4.6185 15.1466 1.73442 21.2256 0.690364 28.4516C0.182792 31.9596 0.0351055 32.675 0.00511496 50.5935C-0.0063937 56.5663 0.00511496 64.427 0.00511496 74.9705C0.00511496 106.265 0.0396975 115.416 0.189707 117.193C0.708844 123.448 1.6894 127.383 3.76595 131.687C7.73446 139.926 15.3137 146.111 24.2429 148.419C27.3346 149.215 30.7493 149.654 35.1331 149.861C36.9905 149.942 55.9215 150 74.8641 150C93.8067 150 112.749 149.977 114.56 149.885C119.636 149.646 122.584 149.25 125.843 148.408C134.83 146.088 142.271 139.995 146.32 131.641C148.356 127.44 149.389 123.355 149.856 117.428C149.957 116.135 150 95.5292 150 74.951C150 54.3692 149.954 33.8013 149.852 32.5089C149.379 26.4853 148.347 22.435 146.245 18.1538C144.52 14.6493 142.605 12.0321 139.825 9.3562C134.863 4.61577 128.795 1.73089 121.564 0.687742C118.061 0.181134 117.363 0.0311244 99.4353 0H75.0245Z" fill="url(#paint2_radial_1638_70)"/>
<path d="M75.0245 0C43.7127 0 34.5551 0.0323145 32.7751 0.18C26.3494 0.714274 22.351 1.7263 17.9948 3.89565C14.6378 5.56316 11.9902 7.49599 9.37719 10.2055C4.6185 15.1466 1.73442 21.2256 0.690364 28.4516C0.182792 31.9596 0.0351055 32.675 0.00511496 50.5935C-0.0063937 56.5663 0.00511496 64.427 0.00511496 74.9705C0.00511496 106.265 0.0396975 115.416 0.189707 117.193C0.708844 123.448 1.6894 127.383 3.76595 131.687C7.73446 139.926 15.3137 146.111 24.2429 148.419C27.3346 149.215 30.7493 149.654 35.1331 149.861C36.9905 149.942 55.9215 150 74.8641 150C93.8067 150 112.749 149.977 114.56 149.885C119.636 149.646 122.584 149.25 125.843 148.408C134.83 146.088 142.271 139.995 146.32 131.641C148.356 127.44 149.389 123.355 149.856 117.428C149.957 116.135 150 95.5292 150 74.951C150 54.3692 149.954 33.8013 149.852 32.5089C149.379 26.4853 148.347 22.435 146.245 18.1538C144.52 14.6493 142.605 12.0321 139.825 9.3562C134.863 4.61577 128.795 1.73089 121.564 0.687742C118.061 0.181134 117.363 0.0311244 99.4353 0H75.0245Z" fill="url(#paint3_radial_1638_70)"/>
<path d="M75.0297 19.2578C59.8832 19.2578 57.9823 19.324 52.0334 19.5945C46.0961 19.8662 42.0434 20.8055 38.4972 22.1837C34.8292 23.6071 31.7176 25.5112 28.6176 28.6099C25.5154 31.7076 23.6098 34.8168 22.1807 38.4811C20.7981 42.0257 19.8569 46.0766 19.5897 52.0072C19.3236 57.9516 19.2539 59.8523 19.2539 74.9875C19.2539 90.1228 19.3213 92.0164 19.5908 97.9609C19.8639 103.894 20.8039 107.944 22.1819 111.487C23.6075 115.152 25.513 118.262 28.6141 121.359C31.713 124.459 34.8245 126.368 38.4903 127.791C42.0387 129.17 46.0926 130.109 52.0287 130.381C57.9777 130.651 59.8773 130.717 75.0227 130.717C90.1703 130.717 92.0654 130.651 98.0143 130.381C103.952 130.109 108.009 129.17 111.557 127.791C115.224 126.368 118.331 124.459 121.43 121.359C124.532 118.262 126.438 115.152 127.867 111.488C129.238 107.944 130.179 103.893 130.458 97.9621C130.725 92.0176 130.795 90.1228 130.795 74.9875C130.795 59.8522 130.725 57.9528 130.458 52.0083C130.179 46.0754 129.238 42.0257 127.867 38.4823C126.438 34.8168 124.532 31.7076 121.43 28.6099C118.328 25.51 115.226 23.6059 111.554 22.1836C107.999 20.8055 103.943 19.8662 98.0062 19.5945C92.0573 19.324 90.1634 19.2578 75.0122 19.2578H75.0297ZM70.0265 29.3008C71.5115 29.2985 73.1683 29.3008 75.0297 29.3008C89.9206 29.3008 91.6855 29.3542 97.5658 29.6212C103.004 29.8697 105.955 30.7776 107.921 31.5404C110.523 32.5505 112.379 33.758 114.33 35.7085C116.282 37.6591 117.49 39.5167 118.503 42.1174C119.267 44.0796 120.176 47.0286 120.424 52.4623C120.691 58.3371 120.749 60.1019 120.749 74.9748C120.749 89.8476 120.691 91.6124 120.424 97.4872C120.175 102.921 119.267 105.87 118.503 107.832C117.492 110.433 116.282 112.285 114.33 114.234C112.378 116.185 110.524 117.392 107.921 118.402C105.957 119.168 103.004 120.074 97.5658 120.322C91.6867 120.59 89.9206 120.648 75.0297 120.648C60.1376 120.648 58.3727 120.59 52.4935 120.322C47.0558 120.072 44.1046 119.164 42.1375 118.401C39.5348 117.391 37.6758 116.183 35.7238 114.233C33.7718 112.282 32.5635 110.429 31.5503 107.827C30.7869 105.865 29.8771 102.916 29.6297 97.4826C29.3624 91.6077 29.309 89.843 29.309 74.9608C29.309 60.0787 29.3624 58.3231 29.6297 52.4483C29.8783 47.0147 30.7869 44.0657 31.5503 42.1012C32.5611 39.5005 33.7718 37.6428 35.7238 35.6923C37.6758 33.7417 39.5348 32.5343 42.1375 31.5219C44.1034 30.7555 47.0558 29.85 52.4935 29.6003C57.6384 29.3681 59.6322 29.2985 70.0266 29.2868L70.0265 29.3008ZM104.8 38.5542C101.105 38.5542 98.1072 41.5462 98.1072 45.2394C98.1072 48.9316 101.105 51.9271 104.8 51.9271C108.495 51.9271 111.492 48.9316 111.492 45.2394C111.492 41.5474 108.495 38.5519 104.8 38.5519L104.8 38.5542ZM75.0297 46.368C59.2127 46.368 46.3889 59.1823 46.3889 74.9875C46.3889 90.7927 59.2127 103.601 75.0297 103.601C90.8466 103.601 103.666 90.7927 103.666 74.9875C103.666 59.1823 90.8454 46.368 75.0285 46.368H75.0297ZM75.0297 56.411C85.2962 56.411 93.6201 64.7275 93.6201 74.9875C93.6201 85.2464 85.2962 93.5641 75.0297 93.5641C64.762 93.5641 56.4393 85.2464 56.4393 74.9875C56.4393 64.7275 64.762 56.411 75.0297 56.411Z" fill="white"/>
</g>
<defs>
<radialGradient id="paint0_radial_1638_70" cx="0" cy="0" r="1" gradientUnits="userSpaceOnUse" gradientTransform="translate(145.157 70.3069) rotate(164.25) scale(95.8415 69.0492)">
<stop stop-color="#FF005F"/>
<stop offset="1" stop-color="#FC01D8"/>
</radialGradient>
<radialGradient id="paint1_radial_1638_70" cx="0" cy="0" r="1" gradientUnits="userSpaceOnUse" gradientTransform="translate(39.8426 161.553) rotate(-90) scale(119.733 127.034)">
<stop stop-color="#FFCC00"/>
<stop offset="0.1242" stop-color="#FFCC00"/>
<stop offset="0.5672" stop-color="#FE4A05"/>
<stop offset="0.6942" stop-color="#FF0F3F"/>
<stop offset="1" stop-color="#FE0657" stop-opacity="0"/>
</radialGradient>
<radialGradient id="paint2_radial_1638_70" cx="0" cy="0" r="1" gradientUnits="userSpaceOnUse" gradientTransform="translate(78.7904 147.885) rotate(-59.8703) scale(49.5106 64.4572)">
<stop stop-color="#FFCC00"/>
<stop offset="1" stop-color="#FFCC00" stop-opacity="0"/>
</radialGradient>
<radialGradient id="paint3_radial_1638_70" cx="0" cy="0" r="1" gradientUnits="userSpaceOnUse" gradientTransform="translate(20.3518 6.10796) rotate(164.274) scale(94.7784 32.2909)">
<stop stop-color="#780CFF"/>
<stop offset="1" stop-color="#820BFF" stop-opacity="0"/>
</radialGradient>
<clipPath id="clip0_1638_70">
<rect width="150" height="150" fill="white"/>
</clipPath>
</defs>
</svg>
