<svg width="801" height="238" viewBox="0 0 801 238" fill="none" xmlns="http://www.w3.org/2000/svg">
<path d="M795.398 209.308C795.398 212.293 794.809 215.247 793.666 218.004C792.523 220.761 790.848 223.265 788.736 225.374C786.625 227.483 784.118 229.155 781.359 230.295C778.601 231.435 775.644 232.02 772.659 232.017H28.5395C22.5083 232.023 16.7216 229.635 12.452 225.376C8.18233 221.117 5.77934 215.338 5.77148 209.308V28.2148C5.77934 22.1825 8.18138 16.4 12.4502 12.1367C16.719 7.8735 22.5056 5.47813 28.5395 5.47656H772.654C775.64 5.47656 778.597 6.06475 781.356 7.20752C784.116 8.3503 786.622 10.0253 788.734 12.1368C790.846 14.2483 792.52 16.755 793.663 19.5137C794.805 22.2724 795.393 25.2291 795.392 28.2148L795.398 209.308Z" fill="white"/>
<path d="M772.658 237.303H28.5385C21.1089 237.302 13.9833 234.354 8.72525 229.106C3.46725 223.858 0.506324 216.74 0.492188 209.312L0.492188 28.2242C0.503179 20.7929 3.46215 13.6693 8.71998 8.41617C13.9778 3.16306 21.1052 0.209397 28.5385 0.203125L772.653 0.203125C780.085 0.212527 787.21 3.1672 792.468 8.41962C797.725 13.6721 800.685 20.7938 800.699 28.2242V209.312C800.711 224.751 788.108 237.303 772.658 237.303Z" fill="#A6A6A6"/>
<path d="M795.398 209.308C795.398 212.293 794.809 215.247 793.666 218.004C792.523 220.761 790.848 223.265 788.736 225.374C786.625 227.483 784.118 229.155 781.359 230.295C778.601 231.435 775.644 232.02 772.659 232.017H28.5395C22.5083 232.023 16.7216 229.635 12.452 225.376C8.18233 221.117 5.77934 215.338 5.77148 209.308V28.2148C5.77934 22.1825 8.18138 16.4 12.4502 12.1367C16.719 7.8735 22.5056 5.47813 28.5395 5.47656H772.654C775.64 5.47656 778.597 6.06475 781.356 7.20752C784.116 8.3503 786.622 10.0253 788.734 12.1368C790.846 14.2483 792.52 16.755 793.663 19.5137C794.805 22.2724 795.393 25.2291 795.392 28.2148L795.398 209.308Z" fill="black"/>
<path d="M179.173 117.503C179.001 98.3935 194.824 89.0966 195.547 88.6638C186.586 75.6019 172.696 73.8172 167.815 73.6749C156.15 72.4476 144.834 80.6535 138.891 80.6535C132.83 80.6535 123.679 73.7935 113.816 73.9951C101.125 74.1908 89.2513 81.537 82.7394 92.9446C69.3004 116.205 79.3233 150.386 92.1989 169.187C98.6397 178.401 106.166 188.676 116.017 188.315C125.654 187.923 129.254 182.178 140.884 182.178C152.407 182.178 155.788 188.315 165.835 188.084C176.178 187.923 182.69 178.834 188.905 169.543C196.348 158.995 199.337 148.595 199.456 148.062C199.219 147.979 179.374 140.401 179.173 117.503ZM160.194 61.3067C165.378 54.8262 168.924 46.0096 167.94 37.0625C160.438 37.3945 151.055 42.2505 145.652 48.5887C140.872 54.174 136.602 63.3286 137.705 71.9377C146.133 72.5662 154.786 67.6865 160.194 61.3067Z" fill="white"/>
<path d="M772.659 0.203125H374.086L530.2 237.303H772.659C780.09 237.297 787.216 234.345 792.473 229.095C797.731 223.844 800.691 216.723 800.705 209.294V28.2242C800.693 20.7933 797.733 13.6707 792.476 8.4179C787.218 3.16513 780.092 0.210963 772.659 0.203125Z" fill="url(#paint0_linear_1624_10)"/>
<path d="M318.764 186.995H305.296L297.918 163.818H272.273L265.246 186.995H252.133L277.546 108.09H293.239L318.764 186.995ZM295.694 154.094L289.022 133.49C288.316 131.385 286.988 126.429 285.042 118.626H284.805C284.022 121.982 282.771 126.939 281.057 133.49L274.498 154.094H295.694ZM383.99 157.847C383.99 167.524 381.363 175.172 376.102 180.787C371.393 185.785 365.54 188.281 358.559 188.281C351.021 188.281 345.601 185.596 342.309 180.212V210.065H329.665V148.799C329.665 142.722 329.505 136.49 329.196 130.099H340.316L341.022 139.117H341.259C345.476 132.322 351.875 128.925 360.463 128.925C367.177 128.925 372.781 131.575 377.265 136.882C381.742 142.2 383.99 149.185 383.99 157.847ZM371.109 158.31C371.109 152.772 369.863 148.206 367.361 144.607C364.626 140.866 360.955 138.993 356.353 138.993C353.234 138.993 350.399 140.036 347.866 142.094C345.328 144.169 343.667 146.878 342.89 150.234C342.544 151.489 342.347 152.781 342.303 154.082V163.575C342.303 167.707 343.572 171.2 346.111 174.057C348.649 176.903 351.947 178.332 356.003 178.332C360.766 178.332 364.472 176.488 367.123 172.83C369.78 169.16 371.109 164.322 371.109 158.31ZM449.447 157.847C449.447 167.524 446.82 175.172 441.56 180.787C436.845 185.785 430.997 188.281 424.011 188.281C416.473 188.281 411.052 185.596 407.76 180.212V210.065H395.116V148.799C395.116 142.722 394.956 136.49 394.648 130.099H405.768L406.474 139.117H406.711C410.922 132.322 417.321 128.925 425.914 128.925C432.622 128.925 438.227 131.575 442.722 136.882C447.194 142.2 449.447 149.185 449.447 157.847ZM436.56 158.31C436.56 152.772 435.309 148.206 432.806 144.607C430.072 140.866 426.413 138.993 421.81 138.993C418.691 138.993 415.856 140.036 413.312 142.094C410.773 144.169 409.119 146.878 408.342 150.234C407.956 151.8 407.749 153.074 407.749 154.082V163.575C407.749 167.707 409.024 171.2 411.55 174.057C414.089 176.898 417.386 178.332 421.455 178.332C426.223 178.332 429.93 176.488 432.575 172.83C435.232 169.16 436.56 164.322 436.56 158.31ZM522.632 164.861C522.632 171.579 520.284 177.04 515.616 181.255C510.48 185.856 503.31 188.163 494.118 188.163C485.625 188.163 478.816 186.526 473.68 183.248L476.604 172.712C482.149 175.996 488.24 177.633 494.871 177.633C499.639 177.633 503.346 176.554 505.991 174.413C508.642 172.267 509.982 169.397 509.982 165.816C509.982 162.608 508.873 159.922 506.697 157.735C504.508 155.553 500.89 153.519 495.808 151.651C481.989 146.499 475.074 138.963 475.074 129.049C475.074 122.575 477.517 117.274 482.393 113.13C487.268 108.991 493.732 106.922 501.774 106.922C508.956 106.922 514.94 108.173 519.691 110.669L516.518 120.974C512.046 118.555 506.999 117.345 501.353 117.345C496.893 117.345 493.394 118.442 490.891 120.624C488.786 122.575 487.718 124.952 487.718 127.775C487.718 130.887 488.934 133.473 491.354 135.5C493.453 137.368 497.285 139.402 502.824 141.584C509.62 144.323 514.614 147.513 517.811 151.177C521.031 154.841 522.632 159.413 522.632 164.861ZM564.545 139.585H550.608V167.209C550.608 174.235 553.063 177.739 557.985 177.739C560.245 177.739 562.119 177.55 563.602 177.152L563.952 186.752C561.461 187.683 558.181 188.151 554.118 188.151C549.125 188.151 545.222 186.627 542.405 183.58C539.6 180.532 538.189 175.427 538.189 168.241V139.562H529.886V130.075H538.189V119.658L550.608 115.91V130.075H564.545V139.585ZM627.303 158.078C627.303 166.824 624.801 174.004 619.807 179.619C614.582 185.4 607.631 188.281 598.967 188.281C590.604 188.281 583.956 185.513 578.998 179.981C574.04 174.437 571.561 167.452 571.561 159.027C571.561 150.21 574.123 142.989 579.229 137.374C584.347 131.753 591.239 128.943 599.904 128.943C608.254 128.943 614.962 131.718 620.038 137.255C624.89 142.627 627.303 149.564 627.303 158.078ZM614.197 158.369C614.197 153.157 613.07 148.687 610.81 144.945C608.159 140.427 604.363 138.168 599.447 138.168C594.382 138.168 590.497 140.427 587.852 144.945C585.587 148.687 584.46 153.234 584.46 158.606C584.46 163.824 585.587 168.306 587.852 172.036C590.586 176.554 594.4 178.813 599.34 178.813C604.174 178.813 607.963 176.506 610.703 171.923C613.028 168.093 614.197 163.593 614.197 158.369ZM668.421 141.216C667.106 140.979 665.772 140.862 664.436 140.866C659.988 140.866 656.548 142.538 654.128 145.906C652.029 148.871 650.973 152.618 650.973 157.142V186.995H638.329V148.017C638.34 142.044 638.217 136.072 637.961 130.105H648.974L649.437 140.991H649.787C651.127 137.249 653.227 134.231 656.109 131.972C658.747 129.999 661.953 128.93 665.248 128.925C666.416 128.925 667.472 129.008 668.409 129.156L668.421 141.216ZM724.97 155.855C725.002 157.777 724.847 159.697 724.508 161.589H686.575C686.717 167.209 688.556 171.514 692.079 174.478C695.275 177.123 699.409 178.451 704.486 178.451C710.102 178.451 715.226 177.562 719.834 175.765L721.815 184.534C716.43 186.882 710.072 188.05 702.736 188.05C693.911 188.05 686.984 185.453 681.943 180.271C676.914 175.083 674.393 168.111 674.393 159.377C674.393 150.803 676.736 143.659 681.427 137.961C686.338 131.878 692.974 128.836 701.325 128.836C709.527 128.836 715.736 131.878 719.953 137.961C723.292 142.781 724.97 148.758 724.97 155.855ZM712.913 152.576C713.002 148.823 712.172 145.592 710.458 142.858C708.269 139.336 704.901 137.581 700.388 137.581C696.254 137.581 692.885 139.295 690.323 142.734C688.218 145.467 686.966 148.752 686.581 152.564L712.913 152.576Z" fill="white"/>
<path d="M268.625 80.191C265.108 80.191 262.066 80.0191 259.533 79.7286V41.5805C263.075 41.0335 266.654 40.7639 270.238 40.7741C284.739 40.7741 291.417 47.9069 291.417 59.5339C291.417 72.9456 283.529 80.191 268.625 80.191ZM270.748 45.6657C268.791 45.6657 267.124 45.7843 265.743 46.0689V75.0683C266.49 75.1868 267.925 75.2402 269.942 75.2402C279.443 75.2402 284.851 69.8328 284.851 59.7059C284.851 50.6758 279.959 45.6657 270.748 45.6657ZM312.228 80.4816C304.055 80.4816 298.759 74.3805 298.759 66.0975C298.759 57.4647 304.168 51.3102 312.69 51.3102C320.744 51.3102 326.159 57.1208 326.159 65.6409C326.159 74.3805 320.578 80.4816 312.228 80.4816ZM312.465 55.8519C307.975 55.8519 305.099 60.0498 305.099 65.9196C305.099 71.6768 308.035 75.8746 312.405 75.8746C316.776 75.8746 319.712 71.3863 319.712 65.801C319.712 60.1091 316.836 55.8519 312.465 55.8519ZM372.762 51.8853L364.014 79.8471H358.315L354.691 67.7043C353.79 64.734 353.04 61.7202 352.444 58.6742H352.325C351.868 61.7218 351.002 64.7753 350.083 67.7043L346.228 79.8471H340.47L332.238 51.8853H338.625L341.792 65.1785C342.539 68.3446 343.168 71.3329 343.69 74.1552H343.809C344.265 71.8013 345.012 68.8605 346.11 65.2378L350.083 51.8913H355.148L358.95 64.9532C359.869 68.1193 360.616 71.2262 361.197 74.1611H361.363C361.767 71.2855 362.401 68.232 363.261 64.9532L366.66 51.8913L372.762 51.8853ZM404.966 79.8471H398.751V63.791C398.751 58.8461 396.853 56.3678 393.11 56.3678C389.428 56.3678 386.895 59.5339 386.895 63.2159V79.8471H380.68V59.8778C380.68 57.4054 380.62 54.755 380.448 51.8794H385.917L386.207 56.1958H386.379C388.052 53.2075 391.444 51.3102 395.246 51.3102C401.117 51.3102 404.972 55.7986 404.972 63.1033L404.966 79.8471ZM422.106 79.8471H415.884V39.0547H422.106V79.8471ZM444.767 80.4816C436.6 80.4816 431.298 74.3805 431.298 66.0975C431.298 57.4647 436.707 51.3102 445.224 51.3102C453.283 51.3102 458.692 57.1208 458.692 65.6409C458.698 74.3805 453.111 80.4816 444.767 80.4816ZM444.998 55.8519C440.509 55.8519 437.632 60.0498 437.632 65.9196C437.632 71.6768 440.574 75.8746 444.933 75.8746C449.31 75.8746 452.24 71.3863 452.24 65.801C452.246 60.1091 449.375 55.8519 444.998 55.8519ZM483.198 79.8471L482.747 76.6276H482.581C480.683 79.2187 477.914 80.4816 474.403 80.4816C469.391 80.4816 465.833 76.9715 465.833 72.2519C465.833 65.3504 471.817 61.7811 482.178 61.7811V61.2652C482.178 57.5832 480.227 55.7393 476.372 55.7393C473.614 55.7393 471.194 56.433 469.065 57.8145L467.802 53.7293C470.388 52.1166 473.614 51.3102 477.404 51.3102C484.71 51.3102 488.399 55.1642 488.399 62.878V73.1769C488.399 75.9991 488.524 78.187 488.802 79.8531L483.198 79.8471ZM482.344 65.9196C475.441 65.9196 471.977 67.5916 471.977 71.5582C471.977 74.4931 473.762 75.928 476.241 75.928C479.402 75.928 482.344 73.5148 482.344 70.236V65.9196ZM518.581 79.8471L518.29 75.3588H518.118C516.333 78.7503 513.332 80.4816 509.139 80.4816C502.396 80.4816 497.402 74.5524 497.402 66.2101C497.402 57.4647 502.579 51.3043 509.649 51.3043C513.391 51.3043 516.042 52.5672 517.537 55.1049H517.661V39.0547H523.883V72.3112C523.883 75.0149 523.948 77.5466 524.114 79.8471H518.581ZM517.661 63.3938C517.661 59.4806 515.07 56.1425 511.114 56.1425C506.506 56.1425 503.689 60.2276 503.689 65.9789C503.689 71.6175 506.612 75.4774 510.989 75.4774C514.898 75.4774 517.661 72.08 517.661 68.0541V63.3938ZM563.328 80.4816C555.161 80.4816 549.865 74.3805 549.865 66.0975C549.865 57.4647 555.274 51.3102 563.79 51.3102C571.85 51.3102 577.259 57.1208 577.259 65.6409C577.265 74.3805 571.684 80.4816 563.328 80.4816ZM563.559 55.8519C559.075 55.8519 556.199 60.0498 556.199 65.9196C556.199 71.6768 559.135 75.8746 563.5 75.8746C567.877 75.8746 570.806 71.3863 570.806 65.801C570.818 60.1091 567.942 55.8519 563.559 55.8519ZM610.684 79.8471H604.463V63.791C604.463 58.8461 602.565 56.3678 598.823 56.3678C595.14 56.3678 592.614 59.5339 592.614 63.2159V79.8471H586.392V59.8778C586.392 57.4054 586.333 54.755 586.161 51.8794H591.629L591.92 56.1958H592.092C593.758 53.2075 597.156 51.3043 600.952 51.3043C606.824 51.3043 610.684 55.7926 610.684 63.0973V79.8471ZM652.502 56.5456H645.664V70.1234C645.664 73.5801 646.862 75.3054 649.281 75.3054C650.379 75.3054 651.298 75.1868 652.039 75.0149L652.211 79.7345C651.007 80.197 649.394 80.4282 647.39 80.4282C642.491 80.4282 639.561 77.7245 639.561 70.6451V56.5456H635.481V51.8853H639.561V46.7626L645.664 44.9186V51.8794H652.502V56.5456ZM685.405 79.8471H679.196V63.9096C679.196 58.9054 677.304 56.3737 673.556 56.3737C670.335 56.3737 667.335 58.5615 667.335 62.9906V79.8471H661.125V39.0547H667.335V55.8519H667.459C669.416 52.8044 672.251 51.3043 675.869 51.3043C681.788 51.3043 685.405 55.9053 685.405 63.2159V79.8471ZM719.116 67.3604H700.463C700.582 72.6551 704.087 75.6434 709.277 75.6434C712.034 75.6434 714.573 75.1809 716.814 74.3212L717.781 78.6376C715.136 79.7879 712.022 80.363 708.399 80.363C699.651 80.363 694.473 74.837 694.473 66.2694C694.473 57.6959 699.776 51.2509 707.699 51.2509C714.845 51.2509 719.329 56.5456 719.329 64.544C719.369 65.488 719.298 66.4333 719.116 67.3604ZM713.416 62.9313C713.416 58.6149 711.24 55.5673 707.266 55.5673C703.696 55.5673 700.873 58.6742 700.469 62.9313H713.416Z" fill="white"/>
<defs>
<linearGradient id="paint0_linear_1624_10" x1="587.389" y1="237.933" x2="587.389" y2="-617.165" gradientUnits="userSpaceOnUse">
<stop stop-color="#1A1A1A" stop-opacity="0.1"/>
<stop offset="0.123" stop-color="#212121" stop-opacity="0.151"/>
<stop offset="0.308" stop-color="#353535" stop-opacity="0.227"/>
<stop offset="0.532" stop-color="#575757" stop-opacity="0.318"/>
<stop offset="0.783" stop-color="#858585" stop-opacity="0.421"/>
<stop offset="1" stop-color="#B3B3B3" stop-opacity="0.51"/>
</linearGradient>
</defs>
</svg>
