<svg width="75" height="22" viewBox="0 0 75 22" fill="none" xmlns="http://www.w3.org/2000/svg">
<g clip-path="url(#clip0_1615_4)">
<path d="M3.85802 0.0736816C2.32393 0.715626 0.63704 2.5273 0.104605 4.80599C-0.570913 7.69067 2.23755 8.90885 2.46701 8.51144C2.73702 8.04001 1.96216 7.88179 1.80393 6.38605C1.60034 4.45183 2.49726 2.29082 3.62908 1.34259C3.8402 1.16925 3.82995 1.41386 3.82995 1.86477C3.82995 2.67799 3.78459 9.95373 3.78459 11.4726C3.78459 13.5289 3.70036 14.1764 3.54485 14.8157C3.392 15.4658 3.14472 15.9043 3.33101 16.0749C3.54213 16.2634 4.43906 15.8147 4.95906 15.089C5.58112 14.2196 5.80033 13.1747 5.84084 12.0407C5.88672 10.6751 5.88405 8.50381 5.88672 7.26782C5.88672 6.13114 5.90454 2.80811 5.8689 0.807477C5.85865 0.318294 4.4979 -0.194176 3.85802 0.0736816ZM74.5865 10.8685C74.3672 10.8685 74.2631 11.098 74.1788 11.483C73.8883 12.8259 73.5826 13.1288 73.1874 13.1288C72.7468 13.1288 72.3515 12.4641 72.2473 11.1336C72.1684 10.0887 72.1809 8.16209 72.283 6.24568C72.3035 5.85312 72.196 5.46377 71.1409 5.07879C70.6851 4.9157 70.0248 4.67109 69.6964 5.46596C68.7661 7.70634 68.4042 9.48994 68.3173 10.2113C68.3153 10.2491 68.2692 10.2545 68.2611 10.1681C68.2082 9.58929 68.0856 8.53677 68.0705 6.32453C68.0651 5.89687 67.9761 5.52695 67.4971 5.2262C67.1887 5.03287 66.2508 4.68619 65.9117 5.09661C65.6212 5.43299 65.2826 6.3353 64.9284 7.40556C64.6427 8.27711 64.444 8.86834 64.444 8.86834C64.444 8.86834 64.446 6.51835 64.4516 5.62633C64.4516 5.28991 64.2221 5.17813 64.1535 5.1576C63.8398 5.06583 63.2205 4.9157 62.9607 4.9157C62.6373 4.9157 62.5606 5.09661 62.5606 5.35904C62.5606 5.39196 62.5071 8.44992 62.5071 10.5882V10.889C62.3311 11.8728 61.7507 13.2082 61.1209 13.2082C60.4913 13.2082 60.1933 12.6498 60.1933 10.1017C60.1933 8.61567 60.2392 7.96877 60.2597 6.89313C60.2722 6.27374 60.2975 5.79748 60.2953 5.68789C60.2899 5.35904 59.7165 5.19057 59.4513 5.12954C59.184 5.06583 58.9519 5.0453 58.7688 5.05287C58.514 5.06851 58.333 5.23645 58.333 5.47135V5.82774C58.0042 5.30825 57.4713 4.94596 57.1149 4.84171C56.1618 4.55879 55.1649 4.81093 54.4133 5.86066C53.8172 6.69712 53.4576 7.64207 53.3177 9.00065C53.2129 9.99472 53.2464 11.0013 53.4322 11.8524C53.208 12.8129 52.795 13.2082 52.3441 13.2082C51.6865 13.2082 51.2128 12.1374 51.2663 10.2847C51.3047 9.06713 51.5466 8.21339 51.8139 6.97465C51.9289 6.44708 51.8344 6.17226 51.6027 5.9044C51.3911 5.66464 50.9375 5.53991 50.2879 5.69003C49.8262 5.79967 49.1614 5.91683 48.5572 6.00645C48.5572 6.00645 48.5929 5.86066 48.6236 5.60365C48.7791 4.25529 47.3136 4.36492 46.8471 4.79583C46.5669 5.05287 46.3757 5.35632 46.3045 5.90172C46.1899 6.76839 46.8957 7.17605 46.8957 7.17605C46.664 8.23604 46.0981 9.62216 45.5096 10.6239C45.1958 11.1617 44.9561 11.557 44.6456 11.9798C44.6428 11.8243 44.6428 11.666 44.6428 11.511C44.6373 9.28092 44.6654 7.52544 44.6784 6.89313C44.6914 6.27374 44.7167 5.80991 44.7167 5.70028C44.7114 5.46053 44.5715 5.36657 44.2756 5.25427C44.0158 5.15274 43.7076 5.07879 43.389 5.05287C42.9888 5.02262 42.7442 5.23645 42.7518 5.48864V5.82774C42.4207 5.30825 41.8877 4.94596 41.5362 4.84171C40.5804 4.55879 39.5842 4.81093 38.8326 5.86066C38.2386 6.69712 37.846 7.86672 37.7337 8.98774C37.6321 10.038 37.65 10.9246 37.7925 11.6741C37.6398 12.4231 37.204 13.2082 36.7099 13.2082C36.0803 13.2082 35.7206 12.6498 35.7206 10.1017C35.7206 8.61567 35.7666 7.96877 35.7898 6.89313C35.8022 6.27374 35.8254 5.79748 35.8226 5.68789C35.82 5.35904 35.2471 5.19057 34.9792 5.12954C34.7017 5.06364 34.4593 5.04315 34.2757 5.05287C34.031 5.07336 33.8604 5.28991 33.8604 5.45567V5.82774C33.5294 5.30825 32.9964 4.94596 32.6422 4.84171C31.6891 4.55879 30.7004 4.81636 29.9433 5.86066C29.4493 6.5416 29.0492 7.29812 28.8429 8.97532C28.7868 9.45966 28.7587 9.91274 28.7614 10.336C28.5648 11.5386 27.6959 12.9252 26.9875 12.9252C26.5696 12.9252 26.1722 12.1196 26.1722 10.3998C26.1722 8.11133 26.3147 4.84929 26.3401 4.53339C26.3401 4.53339 27.2369 4.51772 27.413 4.51558C27.859 4.51287 28.2667 4.52315 28.8607 4.49237C29.1614 4.47726 29.4493 3.40429 29.1382 3.26931C29.0006 3.21042 28.0119 3.15696 27.6192 3.14943C27.2883 3.14186 26.373 3.0733 26.373 3.0733C26.373 3.0733 26.4551 0.909578 26.4729 0.682781C26.488 0.488915 26.2434 0.392285 26.1009 0.333399C25.7563 0.185984 25.4481 0.116894 25.0863 0.0429026C24.5792 -0.0613004 24.3524 0.0407562 24.3092 0.465709C24.2428 1.11097 24.2071 3.00202 24.2071 3.00202C23.8351 3.00202 22.5737 2.9275 22.2038 2.9275C21.8604 2.9275 21.4877 4.40594 21.9646 4.42377C22.5127 4.44429 23.4631 4.46483 24.0948 4.48209C24.0948 4.48209 24.0667 7.79812 24.0667 8.81981V9.13563C23.7179 10.9473 22.497 11.9263 22.497 11.9263C22.7594 10.7259 22.2244 9.8263 21.2561 9.06713C20.8992 8.78417 20.1962 8.25114 19.4084 7.67285C19.4084 7.67285 19.8646 7.22198 20.2696 6.31967C20.5553 5.67979 20.5682 4.94377 19.8646 4.78287C18.7026 4.51558 17.7468 5.36929 17.459 6.28132C17.2398 6.9849 17.3548 7.50976 17.79 8.05244L17.8894 8.175C17.6296 8.67938 17.2678 9.35974 16.9644 9.88734C16.1161 11.3528 15.4761 12.51 14.9945 12.51C14.6073 12.51 14.6122 11.335 14.6122 10.234C14.6122 9.2858 14.6834 7.85643 14.7396 6.37851C14.7575 5.89144 14.5128 5.61118 14.103 5.35904C13.853 5.2062 13.3227 4.90545 13.0144 4.90545C12.5559 4.90545 11.2254 4.96645 9.9694 8.59781C9.8112 9.05682 9.50016 9.89002 9.50016 9.89002L9.52825 5.52209C9.52825 5.42003 9.47484 5.3234 9.35008 5.25427C9.13839 5.13978 8.57029 4.90545 8.07085 4.90545C7.82839 4.90545 7.70852 5.01776 7.70852 5.23916L7.66801 12.0688C7.66801 12.5889 7.68045 13.1952 7.73176 13.4604C7.7825 13.7255 7.86674 13.942 7.9688 14.0717C8.07085 14.1969 8.19018 14.2936 8.38401 14.3368C8.56494 14.3751 9.5612 14.4998 9.6125 14.1202C9.67622 13.664 9.67833 13.1726 10.2011 11.3302C11.0165 8.4655 12.0769 7.06914 12.5765 6.57182C12.6656 6.48543 12.7649 6.48004 12.7595 6.62313C12.7369 7.25219 12.6629 8.81981 12.6121 10.1524C12.4771 13.7228 13.124 14.3826 14.0544 14.3826C14.7628 14.3826 15.7619 13.6769 16.8347 11.8933C17.5049 10.7794 18.1523 9.69131 18.621 8.90398C18.9423 9.20422 19.3089 9.52825 19.6735 9.87492C20.5223 10.6774 20.7998 11.442 20.6141 12.1661C20.4737 12.7211 19.9413 13.2919 18.9958 12.7368C18.7204 12.5759 18.6032 12.4511 18.3257 12.2675C18.1777 12.1682 17.9482 12.1401 17.8132 12.2422C17.4563 12.51 17.2549 12.8486 17.1377 13.2692C17.0281 13.6796 17.4385 13.8934 17.864 14.0819C18.2284 14.2477 19.0136 14.3929 19.5153 14.4107C21.47 14.4772 23.0348 13.4679 24.1229 10.8685C24.3195 13.1137 25.1472 14.3854 26.5873 14.3854C27.5528 14.3854 28.5189 13.139 28.9422 11.9133C29.0616 12.4128 29.2425 12.8459 29.4747 13.2157C30.586 14.9739 32.7416 14.597 33.8221 13.1034C34.1584 12.6396 34.2098 12.4739 34.2098 12.4739C34.3675 13.8838 35.5041 14.38 36.1542 14.38C36.8854 14.38 37.6349 14.0338 38.1619 12.8459C38.2257 12.9761 38.292 13.0985 38.3688 13.2157C39.4773 14.9739 41.6329 14.597 42.7162 13.1034C42.7647 13.0295 42.8106 12.9684 42.8484 12.9096L42.8819 13.8373C42.8819 13.8373 42.2625 14.4032 41.883 14.752C40.2138 16.2839 38.9444 17.446 38.8504 18.7965C38.7332 20.5218 40.1296 21.1616 41.1896 21.2453C42.3111 21.335 43.2745 20.7156 43.8652 19.844C44.3852 19.0794 44.727 17.4357 44.7016 15.8098C44.6914 15.1575 44.6757 14.3319 44.6606 13.4425C45.2492 12.7649 45.9118 11.9031 46.5187 10.8944C47.1834 9.79821 47.8919 8.32248 48.2537 7.17338C48.2537 7.17338 48.8731 7.17877 49.5307 7.13774C49.7424 7.12478 49.8034 7.16852 49.7623 7.32132C49.7165 7.50709 48.9318 10.5374 49.6479 12.5559C50.1398 13.9367 51.243 14.3826 51.9007 14.3826C52.6675 14.3826 53.4018 13.8016 53.7938 12.9404C53.8425 13.0349 53.8911 13.1288 53.9472 13.2157C55.0558 14.9739 57.2038 14.5943 58.2946 13.1034C58.5419 12.7649 58.6796 12.4739 58.6796 12.4739C58.914 13.9345 60.0507 14.3854 60.7003 14.3854C61.3806 14.3854 62.0227 14.1078 62.5454 12.8739C62.5659 13.4172 62.5988 13.8606 62.655 14.0003C62.6879 14.0873 62.8817 14.1942 63.0194 14.2476C63.641 14.4772 64.2733 14.3675 64.505 14.319C64.668 14.286 64.7955 14.1586 64.8111 13.8222C64.8565 12.9404 64.8284 11.4597 65.0962 10.3566C65.5471 8.51144 65.9651 7.79544 66.1637 7.4412C66.274 7.24195 66.4008 7.20902 66.4035 7.418C66.4111 7.84347 66.4343 9.09245 66.6098 10.7745C66.7351 12.0078 66.9057 12.739 67.038 12.9712C67.4101 13.631 67.8739 13.6618 68.2486 13.6618C68.4884 13.6618 68.9879 13.5954 68.9442 13.1747C68.9214 12.9712 68.9598 11.7044 69.4004 9.88515C69.6909 8.69505 70.1726 7.6221 70.3459 7.22951C70.4123 7.08429 70.4404 7.19659 70.4404 7.21927C70.402 8.03734 70.3205 10.7157 70.6515 12.1784C71.1057 14.164 72.4124 14.3854 72.8687 14.3854C73.8396 14.3854 74.6377 13.6461 74.905 11.6995C74.9714 11.2303 74.8743 10.8685 74.5865 10.8685ZM33.8399 9.66591C33.7864 10.6951 33.585 11.5569 33.2642 12.1811C32.6778 13.3151 31.5239 13.672 31.0163 12.0386C30.6469 10.8587 30.7717 9.24789 30.9272 8.37857C31.1513 7.08911 31.7199 6.17707 32.6065 6.26075C33.5137 6.35041 33.9571 7.52001 33.8399 9.66591ZM42.7313 9.68101C42.6805 10.6519 42.4284 11.6304 42.153 12.1811C41.5849 13.3226 40.397 13.6795 39.905 12.0386C39.5692 10.9143 39.648 9.46445 39.8159 8.55195C40.033 7.3645 40.5551 6.26075 41.4958 6.26075C42.4106 6.26075 42.8614 7.26511 42.7313 9.68101ZM42.9635 16.3169C42.9506 18.0934 42.673 19.648 42.0763 20.1015C41.2253 20.7437 40.0811 20.2593 40.3181 18.9649C40.5271 17.818 41.5185 16.6484 42.9662 15.2185C42.9662 15.2185 42.9712 15.5446 42.9635 16.3169ZM58.3152 9.69123C58.2639 10.7593 58.0269 11.5925 57.7342 12.1811C57.1656 13.3226 55.9884 13.6769 55.4862 12.0386C55.2136 11.1438 55.2006 9.65024 55.3971 8.40446C55.5959 7.13499 56.1542 6.17707 57.0765 6.26075C57.9885 6.34769 58.4145 7.52001 58.3152 9.69123Z" fill="white"/>
</g>
<defs>
<clipPath id="clip0_1615_4">
<rect width="75" height="21.2662" fill="white"/>
</clipPath>
</defs>
</svg>
