<svg width="801" height="238" viewBox="0 0 801 238" fill="none" xmlns="http://www.w3.org/2000/svg">
<path d="M770.974 237.412H30.2331C13.6406 237.412 0.603516 224.375 0.603516 207.782V30.0046C0.603516 13.412 13.6406 0.375 30.2331 0.375H770.974C787.566 0.375 800.603 13.412 800.603 30.0046V207.782C800.603 224.375 787.566 237.412 770.974 237.412Z" fill="black"/>
<path d="M770.974 5.11574C784.603 5.11574 795.863 16.375 795.863 30.0046V207.782C795.863 221.412 784.603 232.671 770.974 232.671H30.2331C16.6035 232.671 5.34426 221.412 5.34426 207.782V30.0046C5.34426 16.375 16.6035 5.11574 30.2331 5.11574H770.974ZM770.974 0.375H30.2331C13.6406 0.375 0.603516 14.0046 0.603516 30.0046V207.782C0.603516 224.375 13.6406 237.412 30.2331 237.412H770.974C787.566 237.412 800.603 224.375 800.603 207.782V30.0046C800.603 14.0046 787.566 0.375 770.974 0.375Z" fill="#A6A6A6"/>
<path d="M281.493 60.8134C281.493 65.5541 280.308 69.7023 277.345 72.6652C273.789 76.2208 269.641 77.9986 264.308 77.9986C258.975 77.9986 254.826 76.2208 251.271 72.6652C247.715 69.1097 245.938 64.9615 245.938 59.6282C245.938 54.2948 247.715 50.1467 251.271 46.5911C254.826 43.0356 258.975 41.2578 264.308 41.2578C266.678 41.2578 269.049 41.8504 271.419 43.0356C273.789 44.2208 275.567 45.406 276.752 47.1837L273.789 50.1467C271.419 47.1837 268.456 45.9986 264.308 45.9986C260.752 45.9986 257.197 47.1837 254.826 50.1467C251.863 52.5171 250.678 56.0726 250.678 60.2208C250.678 64.3689 251.863 67.9245 254.826 70.2948C257.789 72.6652 260.752 74.443 264.308 74.443C268.456 74.443 271.419 73.2578 274.382 70.2948C276.16 68.5171 277.345 66.1467 277.345 63.1837H264.308V58.443H281.493V60.8134ZM308.752 45.9986H292.752V57.2578H307.567V61.406H292.752V72.6652H308.752V77.406H288.012V41.8504H308.752V45.9986ZM328.308 77.406H323.567V45.9986H313.493V41.8504H338.382V45.9986H328.308V77.406ZM355.567 77.406V41.8504H360.308V77.406H355.567ZM380.456 77.406H375.715V45.9986H365.641V41.8504H389.937V45.9986H379.863V77.406H380.456ZM436.752 72.6652C433.197 76.2208 429.049 77.9986 423.715 77.9986C418.382 77.9986 414.234 76.2208 410.678 72.6652C407.123 69.1097 405.345 64.9615 405.345 59.6282C405.345 54.2948 407.123 50.1467 410.678 46.5911C414.234 43.0356 418.382 41.2578 423.715 41.2578C429.049 41.2578 433.197 43.0356 436.752 46.5911C440.308 50.1467 442.086 54.2948 442.086 59.6282C442.086 64.9615 440.308 69.1097 436.752 72.6652ZM414.234 69.7023C416.604 72.0726 420.16 73.8504 423.715 73.8504C427.271 73.8504 430.826 72.6652 433.197 69.7023C435.567 67.3319 437.345 63.7763 437.345 59.6282C437.345 55.48 436.16 51.9245 433.197 49.5541C430.826 47.1837 427.271 45.406 423.715 45.406C420.16 45.406 416.604 46.5911 414.234 49.5541C411.863 51.9245 410.086 55.48 410.086 59.6282C410.086 63.7763 411.271 67.3319 414.234 69.7023ZM448.604 77.406V41.8504H453.937L471.123 69.7023V41.8504H475.863V77.406H471.123L452.752 48.3689V77.406H448.604Z" fill="white" stroke="white" stroke-width="1.18519" stroke-miterlimit="10"/>
<path d="M404.158 129.555C389.936 129.555 378.677 140.222 378.677 155.036C378.677 169.259 389.936 180.518 404.158 180.518C418.38 180.518 429.64 169.851 429.64 155.036C429.64 139.629 418.38 129.555 404.158 129.555ZM404.158 169.851C396.454 169.851 389.936 163.333 389.936 154.444C389.936 145.555 396.454 139.036 404.158 139.036C411.862 139.036 418.38 144.962 418.38 154.444C418.38 163.333 411.862 169.851 404.158 169.851ZM349.047 129.555C334.825 129.555 323.566 140.222 323.566 155.036C323.566 169.259 334.825 180.518 349.047 180.518C363.269 180.518 374.529 169.851 374.529 155.036C374.529 139.629 363.269 129.555 349.047 129.555ZM349.047 169.851C341.343 169.851 334.825 163.333 334.825 154.444C334.825 145.555 341.343 139.036 349.047 139.036C356.751 139.036 363.269 144.962 363.269 154.444C363.269 163.333 356.751 169.851 349.047 169.851ZM283.269 137.259V147.925H308.751C308.158 153.851 305.788 158.592 302.825 161.555C299.269 165.111 293.343 169.259 283.269 169.259C267.269 169.259 255.417 156.814 255.417 140.814C255.417 124.814 267.862 112.37 283.269 112.37C291.566 112.37 298.084 115.925 302.825 120.073L310.529 112.37C304.01 106.444 295.714 101.703 283.862 101.703C262.529 101.703 244.158 119.481 244.158 140.814C244.158 162.148 262.529 179.925 283.862 179.925C295.714 179.925 304.01 176.37 311.121 168.666C318.232 161.555 320.603 151.481 320.603 143.777C320.603 141.407 320.603 139.036 320.01 137.259H283.269ZM552.306 145.555C549.936 139.629 544.01 129.555 530.973 129.555C517.936 129.555 507.269 139.629 507.269 155.036C507.269 169.259 517.936 180.518 532.158 180.518C543.417 180.518 550.529 173.407 552.899 169.259L544.603 163.333C541.64 167.481 538.084 170.444 532.158 170.444C526.232 170.444 522.677 168.073 519.714 162.74L553.492 148.518L552.306 145.555ZM517.936 153.851C517.936 144.37 525.64 139.036 530.973 139.036C535.121 139.036 539.269 141.407 540.454 144.37L517.936 153.851ZM490.084 178.148H501.343V104.073H490.084V178.148ZM472.306 134.888C469.343 131.925 464.603 128.962 458.677 128.962C446.232 128.962 434.38 140.222 434.38 154.444C434.38 168.666 445.64 179.333 458.677 179.333C464.603 179.333 469.343 176.37 471.714 173.407H472.306V176.962C472.306 186.444 466.973 191.777 458.677 191.777C452.158 191.777 447.417 187.036 446.232 182.888L436.751 187.036C439.714 193.555 446.825 201.851 459.269 201.851C472.306 201.851 482.973 194.148 482.973 175.777V130.74H472.306V134.888ZM459.269 169.851C451.566 169.851 445.047 163.333 445.047 154.444C445.047 145.555 451.566 139.036 459.269 139.036C466.973 139.036 472.899 145.555 472.899 154.444C472.899 163.333 466.973 169.851 459.269 169.851ZM603.862 104.073H577.195V178.148H588.454V150.296H603.862C616.306 150.296 628.158 141.407 628.158 127.185C628.158 112.962 616.306 104.073 603.862 104.073ZM604.455 139.629H588.454V114.148H604.455C612.751 114.148 617.492 121.259 617.492 126.592C616.899 133.111 612.158 139.629 604.455 139.629ZM672.603 128.962C664.306 128.962 656.01 132.518 653.047 140.222L663.121 144.37C665.492 140.222 669.047 139.036 673.195 139.036C679.121 139.036 684.454 142.592 685.047 148.518V149.111C683.269 147.925 678.529 146.148 673.788 146.148C663.121 146.148 652.454 152.073 652.454 162.74C652.454 172.814 661.343 179.333 670.825 179.333C678.529 179.333 682.084 175.777 685.047 172.222H685.64V178.148H696.306V149.703C695.121 136.666 685.047 128.962 672.603 128.962ZM671.417 169.851C667.862 169.851 662.529 168.073 662.529 163.333C662.529 157.407 669.047 155.629 674.38 155.629C679.121 155.629 681.492 156.814 684.455 157.999C683.269 165.111 677.343 169.851 671.417 169.851ZM733.64 130.74L721.195 162.74H720.603L707.566 130.74H695.714L715.269 175.777L704.01 200.666H715.269L745.492 130.74H733.64ZM634.084 178.148H645.343V104.073H634.084V178.148Z" fill="white"/>
<path d="M62.2336 44.8203C60.4559 46.5981 59.8633 49.5611 59.8633 53.1166V184.08C59.8633 187.635 61.0485 190.598 62.8262 192.376L63.4188 192.968L136.9 119.487V118.302L62.2336 44.8203Z" fill="url(#paint0_linear_1624_33)"/>
<path d="M160.605 144.37L136.309 120.074V118.296L160.605 94L161.197 94.5926L190.235 111.185C198.531 115.926 198.531 123.63 190.235 128.37L160.605 144.37Z" fill="url(#paint1_linear_1624_33)"/>
<path d="M161.197 143.78L136.308 118.891L62.2344 192.965C65.1973 195.928 69.3455 195.928 74.6788 193.557L161.197 143.78Z" fill="url(#paint2_linear_1624_33)"/>
<path d="M161.197 94.0004L74.6788 44.8152C69.3455 41.8522 65.1973 42.4448 62.2344 45.4078L136.308 118.889L161.197 94.0004Z" fill="url(#paint3_linear_1624_33)"/>
<path opacity="0.2" d="M160.605 143.188L74.6788 191.78C69.9381 194.743 65.7899 194.15 62.827 191.78L62.2344 192.373L62.827 192.965C65.7899 195.336 69.9381 195.928 74.6788 192.965L160.605 143.188Z" fill="black"/>
<path opacity="0.12" d="M62.2336 191.78C60.4559 190.002 59.8633 187.039 59.8633 183.483V184.076C59.8633 187.631 61.0485 190.594 62.8262 192.372V191.78H62.2336ZM190.234 126.594L160.604 143.187L161.197 143.78L190.234 127.187C194.382 124.817 196.16 121.854 196.16 118.891C196.16 121.854 193.789 124.224 190.234 126.594Z" fill="black"/>
<path opacity="0.25" d="M74.6781 45.4099L190.234 111.188C193.789 113.558 196.16 115.928 196.16 118.891C196.16 115.928 194.382 112.965 190.234 110.595L74.6781 44.8173C66.3818 40.0765 59.8633 43.6321 59.8633 53.1136V53.7062C59.8633 44.8173 66.3818 40.6691 74.6781 45.4099Z" fill="white"/>
<defs>
<linearGradient id="paint0_linear_1624_33" x1="129.789" y1="51.9907" x2="30.3344" y2="151.44" gradientUnits="userSpaceOnUse">
<stop stop-color="#00A0FF"/>
<stop offset="0.007" stop-color="#00A1FF"/>
<stop offset="0.26" stop-color="#00BEFF"/>
<stop offset="0.512" stop-color="#00D2FF"/>
<stop offset="0.76" stop-color="#00DFFF"/>
<stop offset="1" stop-color="#00E3FF"/>
</linearGradient>
<linearGradient id="paint1_linear_1624_33" x1="201.103" y1="118.895" x2="57.713" y2="118.895" gradientUnits="userSpaceOnUse">
<stop stop-color="#FFE000"/>
<stop offset="0.409" stop-color="#FFBD00"/>
<stop offset="0.775" stop-color="#FFA500"/>
<stop offset="1" stop-color="#FF9C00"/>
</linearGradient>
<linearGradient id="paint2_linear_1624_33" x1="147.728" y1="132.497" x2="12.8655" y2="267.359" gradientUnits="userSpaceOnUse">
<stop stop-color="#FF3A44"/>
<stop offset="1" stop-color="#C31162"/>
</linearGradient>
<linearGradient id="paint3_linear_1624_33" x1="43.8462" y1="1.41371" x2="104.071" y2="61.6389" gradientUnits="userSpaceOnUse">
<stop stop-color="#32A071"/>
<stop offset="0.069" stop-color="#2DA771"/>
<stop offset="0.476" stop-color="#15CF74"/>
<stop offset="0.801" stop-color="#06E775"/>
<stop offset="1" stop-color="#00F076"/>
</linearGradient>
</defs>
</svg>
